<?xml version="1.0" encoding="utf-8"?>
<!-- Generator: Adobe Illustrator 24.1.2, SVG Export Plug-In . SVG Version: 6.00 Build 0)  -->
<svg version="1.1" id="Layer_1" xmlns="http://www.w3.org/2000/svg" xmlns:xlink="http://www.w3.org/1999/xlink" x="0px" y="0px"
	 viewBox="0 0 331 98" style="enable-background:new 0 0 331 98;" xml:space="preserve">
<style type="text/css">
	.st0{fill:#4D4C55;}
	.st1{fill:#F9B233;}
</style>
<path class="st0" d="M325.12,91.05c-1.04,0.32-6.71,1.88-12.73,1.88c-13.44,0-20.59-5.75-20.59-18V1.3h7.53
	c7.85,0,10.41,4.57,10.41,10.94v5.59h15.38v4.33c0,6.15-4.26,9.64-10.61,9.64h-4.77v39.97c0,4.38,1.48,7.5,7.68,7.5
	c3.68,0,7.11-1.05,7.69-1.22C325.12,79.52,325.12,91.05,325.12,91.05 M278.48,29.76c3.8,0,7.75,1.14,8.21,1.27V17.83
	c-0.64-0.12-8-1.72-14.99-1.72c-11.85,0-20.21,4.89-20.21,17.73v57.31h17.94V37.38C269.42,32.64,272.44,29.76,278.48,29.76z
	 M175.45,36.88c0-7.37-4.16-20.72-28.15-20.72c-12.3,0-17.23,3.25-18.99,4.44c-1.82-1.03-7.55-4.44-19-4.44
	c-22.16,0-28.14,11.04-28.14,20.18v54.8h18.09c0,0,0-51.6,0-53.61c0-3.1,1.75-7.79,10.05-7.79c6.45,0,9.96,3.26,9.96,7.79
	c0,1.36,0,53.61,0,53.61h18.1c0,0,0-50.36,0-53.61c0-4.51,3.43-7.79,9.94-7.79c7.1,0,10.05,3.63,10.05,7.79c0,3.08,0,41.14,0,41.33
	c0,8.1,4.72,12.67,12.21,12.67c5.18,0,5.89,0,5.89,0V36.88z M213.7,16.12c22.64,0,30.84,10.73,30.84,25v23.21
	c0,16.31-10.45,28.6-32.11,28.6c-20.73,0-32.03-9.73-32.03-22.84c0-10.46,7.1-17.35,22.55-21.6c2.25-0.62,9.76-2.86,13.18-3.87
	c7.79-2.28,10.3-4.05,10.3-7.42c0-3.55-4.33-7.44-13.15-7.44c-10.54,0-13.86,6.51-13.91,11.2h-16.43
	C182.94,26.45,191.59,16.12,213.7,16.12z M211,79.27c6.96,0,15.47-4.4,15.47-15.58v-8.79c0,0-13.7,3.92-17.54,5.09
	c-6.84,2.07-10.13,5.56-10.13,10.12C198.8,74.68,202.57,79.27,211,79.27z"/>
<path class="st1" d="M35.88,92.89C10.91,92.89,0,77.59,0,58.24V37.36C0,10.47,17.92,0,38.95,0c25.39,0,36.49,13.82,36.49,27.63
	c0,20.17-20.63,25.12-29.74,27.75c-2.62,0.76-12.29,3.64-14.47,4.27c-8.51,2.46-10.95,5.22-10.95,8.34c0,5.34,4.66,9.97,15.58,9.97
	c9.5,0,16.44-3.23,17.6-13.15h19.87C71.3,80.51,61.86,92.89,35.88,92.89 M38.11,14.95c-11.04,0-18.27,7.38-18.27,19.97v13.21
	c0,0,14.93-4.36,21.17-6.25c5.22-1.59,14.57-4.9,14.57-13.14C55.59,21.56,49.77,14.95,38.11,14.95z"/>
</svg>
